<?xml version="1.0" encoding="UTF-8" standalone="no"?>
<!-- Created with Inkscape (http://www.inkscape.org/) -->

<svg
   xmlns:dc="http://purl.org/dc/elements/1.1/"
   xmlns:cc="http://creativecommons.org/ns#"
   xmlns:rdf="http://www.w3.org/1999/02/22-rdf-syntax-ns#"
   xmlns:svg="http://www.w3.org/2000/svg"
   xmlns="http://www.w3.org/2000/svg"
   xmlns:sodipodi="http://sodipodi.sourceforge.net/DTD/sodipodi-0.dtd"
   xmlns:inkscape="http://www.inkscape.org/namespaces/inkscape"
   width="99"
   height="40"
   id="svg2"
   version="1.1"
   inkscape:version="0.48.4 r9939"
   sodipodi:docname="Documento nuevo 1">
  <title
     id="title3006">World Vision logo</title>
  <defs
     id="defs4" />
  <sodipodi:namedview
     id="base"
     pagecolor="#ffffff"
     bordercolor="#666666"
     borderopacity="1.0"
     inkscape:pageopacity="0.0"
     inkscape:pageshadow="2"
     inkscape:zoom="1"
     inkscape:cx="56.87012"
     inkscape:cy="18.01995"
     inkscape:document-units="px"
     inkscape:current-layer="layer1"
     showgrid="false"
     inkscape:showpageshadow="false"
     inkscape:window-width="1600"
     inkscape:window-height="844"
     inkscape:window-x="-4"
     inkscape:window-y="-4"
     inkscape:window-maximized="1" />
  <metadata
     id="metadata7">
    <rdf:RDF>
      <cc:Work
         rdf:about="">
        <dc:format>image/svg+xml</dc:format>
        <dc:type
           rdf:resource="http://purl.org/dc/dcmitype/StillImage" />
        <dc:title>World Vision logo</dc:title>
      </cc:Work>
    </rdf:RDF>
  </metadata>
  <g
     inkscape:label="Capa 1"
     inkscape:groupmode="layer"
     id="layer1"
     transform="translate(0,-1012.3622)">
    <path
       d="m 29.163653,1012.8582 c -0.06552,0 -0.113567,-0.047 -0.113567,-0.1056 0,-0.058 0.05032,-0.1055 0.113567,-0.1055 l 69.227808,0 0,39.0575 c -15.881905,-20.8442 -40.705024,-35.3592 -69.227808,-38.8464"
       style="fill:#f3912d;fill-opacity:1;fill-rule:nonzero;stroke:none"
       id="path2276"
       inkscape:connector-curvature="0" />
    <path
       d="m 87.429014,1035.7914 c 0.567715,-7.4067 0.613683,-11.3039 1.898513,-12.3553 0.976839,-0.7998 3.116688,-1.2057 7.315943,-1.4798 -4.596885,-0.2984 -6.111559,-0.5359 -7.410179,-1.5873 -1.254949,-1.015 -1.498584,-2.4074 -1.804277,-6.4081 -0.301096,3.9236 -0.459689,5.1943 -1.719236,6.3431 -1.339992,1.2219 -2.654701,1.3377 -7.495221,1.6523 4.440591,0.2903 6.120753,0.548 7.315943,1.5264 1.395154,1.1407 1.326201,4.833 1.898514,12.3087"
       style="fill:#ffffff;fill-opacity:1;fill-rule:nonzero;stroke:none"
       id="path2976"
       inkscape:connector-curvature="0" />
    <path
       d="m 18.905713,1035.4797 0,6.5749 1.611692,0 0,-5.3502 c 0.541634,-0.5262 0.928515,-0.3494 1.998573,0.6454 l 0.651091,-1.6422 c -0.324603,-0.1585 -0.743566,-0.3323 -1.347477,-0.3323 -0.605801,0 -1.054961,0.3323 -1.271992,0.6284 l -0.0773,0.1057 -0.01511,-0.018 0.01511,-0.6114 -1.564512,0 z m 6.52414,-3.4802 -1.61169,0 0,10.0551 1.61169,0 0,-10.0551 z m -14.101351,6.7686 c 0,1.8359 1.207824,3.3565 3.161104,3.3565 1.951391,0 3.161103,-1.5206 3.161103,-3.3565 0,-1.8359 -1.209712,-3.3586 -3.161103,-3.3586 -1.95328,0 -3.161104,1.5227 -3.161104,3.3586 m 33.749259,-3.2884 -1.61169,0 0,6.5749 1.61169,0 0,-6.5749 z m 6.911023,0 0,3.691 c 0,1.8871 0.713371,3.0947 4.091504,3.0947 3.951852,0 5.346511,-1.7144 5.346511,-3.6037 0,-1.853 -1.317283,-3.3056 -3.130907,-3.3056 -1.983474,0 -3.113923,1.489 -3.113923,2.9926 0,1.0839 0.588816,2.1852 1.858917,2.7793 l 0.386883,-0.5069 c -0.511439,-0.6646 -0.711486,-1.4334 -0.711486,-2.1511 0,-1.312 0.711486,-2.4301 1.547526,-2.4301 1.05496,0 1.534316,1.329 1.534316,2.7092 0,1.3821 -0.432175,2.9391 -3.300759,2.9391 -2.275994,0 -2.896891,-0.5239 -2.896891,-2.081 l 0,-4.1275 -1.611691,0 z m 0.837927,-2.9733 c -0.481242,0 -0.853026,0.4196 -0.853026,0.9627 0,0.541 0.371784,0.9606 0.853026,0.9606 0.479356,0 0.851139,-0.4196 0.851139,-0.9606 0,-0.5431 -0.371783,-0.9627 -0.851139,-0.9627 m -8.35286,0 c -0.481243,0 -0.853026,0.4196 -0.853026,0.9627 0,0.541 0.371783,0.9606 0.853026,0.9606 0.48124,0 0.853024,-0.4196 0.853024,-0.9606 0,-0.5431 -0.371784,-0.9627 -0.853024,-0.9627 m 1.906096,4.775 c -0.154752,2.5006 3.098825,1.9063 3.006352,3.4272 -0.04709,0.6111 -0.511439,0.822 -1.007779,0.805 -0.805844,-0.069 -1.302185,-0.5944 -1.736247,-1.1714 l -0.479356,1.2055 c 0.651093,0.4195 1.362576,0.6305 1.983473,0.6815 1.394661,0.1059 2.57229,-0.5771 2.649667,-2.098 0.139654,-2.3598 -3.223381,-2.0638 -3.161104,-3.2692 0.03019,-0.5261 0.556732,-0.7881 1.100254,-0.752 0.556731,0.052 0.990793,0.4027 1.472035,0.8904 l 0.434062,-1.0841 c -0.603913,-0.296 -1.177628,-0.4366 -1.689067,-0.4899 -1.504119,-0.1044 -2.510009,0.7882 -2.57229,1.855 m -16.783098,4.9138 c 0.760551,0 1.379561,-0.2982 1.938182,-0.7881 l 0.03018,0.019 0,0.6283 1.489022,0 0,-10.055 -1.611691,0 0,4.0041 c -0.451046,-0.3833 -1.132335,-0.6284 -1.828721,-0.6284 -0.883223,0 -2.991252,0.6113 -2.991252,3.4972 0,2.1511 1.673967,3.3225 2.974266,3.3225 m 9.468213,-0.1397 0.683174,0 3.408332,-8.8303 -0.883222,0 -2.370356,6.2086 -2.34016,-6.2086 -1.953278,0 3.45551,8.8303 z m 29.582265,0 0,-3.6185 c 0,-2.4493 -1.658871,-3.0607 -2.634569,-3.0607 -0.698272,0 -1.287086,0.2961 -1.875901,0.752 l -0.03018,-0.017 0,-0.6305 -1.487134,0 0,6.5747 1.611691,0 0,-5.299 c 0.479356,-0.4706 0.945498,-0.6644 1.347478,-0.6644 0.853027,0 1.44184,0.9284 1.44184,1.9424 l 0,4.021 1.626791,0 z m -61.5179023,-7.9912 -0.9153046,0 -1.8287217,5.3331 -1.951392,-6.1382 -1.87590237,0 2.89877917,8.7793 0.8832217,0 1.8740152,-5.4204 1.8589175,5.4204 0.885109,0 2.8968904,-8.76 -0.883219,0 -2.0306577,6.1189 -1.8117356,-5.3331 z m 8.8171213,4.7049 c 0,1.5207 -0.449162,2.7283 -1.456939,2.7283 -1.007781,0 -1.456941,-1.2076 -1.456941,-2.7283 0,-1.5229 0.44916,-2.7283 1.456941,-2.7283 1.007777,0 1.456939,1.2054 1.456939,2.7283 m 15.49601,-1.9765 0,3.9701 c -0.418964,0.4024 -0.805845,0.6986 -1.39466,0.6986 -0.713371,0 -1.643774,-0.6816 -1.643774,-2.658 0,-2.1342 1.472037,-3.672 3.038434,-2.0107"
       style="fill:#000000;fill-opacity:1;fill-rule:nonzero;stroke:none"
       id="path2272"
       inkscape:connector-curvature="0" />
  </g>
</svg>
