<svg width="159" height="228" viewBox="0 0 159 228" fill="none" xmlns="http://www.w3.org/2000/svg">
<path d="M126.024 83.8616C126.024 109.142 105.42 129.691 79.9349 129.691C54.4499 129.691 33.8459 109.142 33.8459 83.8616C33.8459 58.5812 54.4499 38.032 79.9349 38.032C105.42 38.032 126.024 58.5812 126.024 83.8616Z" fill="#FCF356" stroke="#1C006B" stroke-width="13.1683"/>
<path d="M112.856 39.3103C112.856 57.3538 98.1478 72.0364 79.9355 72.0364C61.7232 72.0364 47.0148 57.3538 47.0148 39.3103C47.0148 21.2667 61.7232 6.58415 79.9355 6.58415C98.1478 6.58415 112.856 21.2667 112.856 39.3103Z" fill="#F3B761" stroke="#0F0F0F" stroke-width="13.1683"/>
<ellipse cx="79.9355" cy="149.379" rx="79.0098" ry="78.6205" fill="#0F0F0F"/>
<ellipse cx="79.9357" cy="149.569" rx="62.9543" ry="62.5318" fill="#58A9A3"/>
<ellipse cx="79.9349" cy="149.38" rx="52.6732" ry="52.4137" fill="#101010"/>
<ellipse cx="79.9355" cy="149.379" rx="39.5049" ry="39.3103" fill="#CA4A3F"/>
<path d="M125.707 83.6793C125.707 108.862 105.183 129.333 79.7943 129.333C54.4057 129.333 33.8813 108.862 33.8813 83.6793C33.8813 58.497 54.4057 38.0258 79.7943 38.0258C105.183 38.0258 125.707 58.497 125.707 83.6793Z" stroke="#101010" stroke-width="13.5204"/>
</svg>
