<svg width="256" height="256" viewBox="0 0 256 256" fill="none" xmlns="http://www.w3.org/2000/svg">
<path d="M179.363 94.4255C179.363 122.589 156.409 145.481 128.018 145.481C99.6264 145.481 76.6726 122.589 76.6726 94.4255C76.6726 66.2622 99.6264 43.3696 128.018 43.3696C156.409 43.3696 179.363 66.2622 179.363 94.4255Z" fill="#F9D321" stroke="#1C006B" stroke-width="14.67"/>
<path d="M164.692 44.7932C164.692 64.8944 148.307 81.2513 128.018 81.2513C107.728 81.2513 91.3426 64.8944 91.3426 44.7932C91.3426 24.692 107.728 8.33499 128.018 8.33499C148.307 8.33499 164.692 24.692 164.692 44.7932Z" fill="#DA3A87" stroke="#5B397F" stroke-width="14.67"/>
<ellipse cx="128.02" cy="167.414" rx="88.0199" ry="87.5863" fill="#9B3681"/>
<ellipse cx="128.02" cy="167.626" rx="70.1335" ry="69.6628" fill="#DB3882"/>
<ellipse cx="128.02" cy="167.414" rx="58.68" ry="58.3909" fill="#FAD321"/>
<ellipse cx="128.018" cy="167.414" rx="44.01" ry="43.7932" fill="#E15648"/>
<path d="M179.009 94.2224C179.009 122.276 156.144 145.082 127.861 145.082C99.5768 145.082 76.7118 122.276 76.7118 94.2224C76.7118 66.1683 99.5768 43.3626 127.861 43.3626C156.144 43.3626 179.009 66.1683 179.009 94.2224Z" stroke="#484266" stroke-width="15.0622"/>
</svg>
